<?xml version="1.0" encoding="UTF-8"?>
<svg version="1.1" xmlns="http://www.w3.org/2000/svg" width="980" height="980">
<path d="M0 0 C4.25141105 0.02278813 8.50181964 0.00919681 12.75319672 -0.01375866 C41.68290109 -0.1460003 70.22388274 1.91890782 98.60253906 7.83398438 C100.10707527 8.13853189 101.61163321 8.44297212 103.11621094 8.74731445 C137.4809654 15.78316607 171.0541856 26.2203374 203.10253906 40.52148438 C204.08577148 40.95283691 205.06900391 41.38418945 206.08203125 41.82861328 C236.56795181 55.22305287 265.1771709 71.94281471 292.10253906 91.52148438 C292.69599121 91.95299805 293.28944336 92.38451172 293.90087891 92.82910156 C297.3398615 95.34431765 300.72954866 97.91866785 304.10253906 100.52148438 C304.90087158 101.1327417 304.90087158 101.1327417 305.71533203 101.75634766 C324.15866701 115.89818499 341.1997983 131.57454045 357.66503906 147.95898438 C358.30755615 148.59682861 358.95007324 149.23467285 359.61206055 149.8918457 C363.97702083 154.27162758 368.06880434 158.83697768 372.10253906 163.52148438 C373.14822576 164.71263278 374.19506873 165.90276729 375.24316406 167.09179688 C434.33824115 234.49359937 474.13142967 318.03542553 489.41503906 406.33398438 C489.59090546 407.33520828 489.59090546 407.33520828 489.77032471 408.35665894 C490.64543925 413.39874423 491.39327574 418.45365065 492.10253906 423.52148438 C492.23457733 424.4283902 492.3666156 425.33529602 492.50265503 426.26968384 C495.2768742 445.81155344 495.60303305 465.17241958 495.54858398 484.87036133 C495.53942546 488.33382418 495.54627022 491.79661063 495.5690918 495.26000977 C496.07700491 572.81236475 476.54844304 646.31816563 442.10253906 715.52148438 C441.69213379 716.35164062 441.28172852 717.18179688 440.85888672 718.03710938 C430.467348 738.91524455 417.93868716 758.76406997 404.10253906 777.52148438 C403.34972656 778.55660156 402.59691406 779.59171875 401.82128906 780.65820312 C385.4736464 802.84005884 367.14968338 823.50382131 347.72753906 843.02148438 C347.0859082 843.66778809 346.44427734 844.3140918 345.78320312 844.97998047 C341.95024181 848.8000795 337.99763878 852.42639085 333.90185547 855.96289062 C331.71824376 857.85436649 329.59962432 859.81144927 327.47753906 861.77148438 C321.82520069 866.86984165 315.86797044 871.52991191 309.84326172 876.17480469 C308.22833696 877.42416303 306.62395213 878.68711311 305.02050781 879.95117188 C277.53137251 901.47668219 247.59238163 919.48748436 216.10253906 934.52148438 C214.93779053 935.08101807 214.93779053 935.08101807 213.74951172 935.65185547 C150.13533383 966.00047302 80.55542327 981.42325982 10.20507812 981.04296875 C5.95366708 981.02018062 1.70325848 981.03377194 -2.54811859 981.05672741 C-31.47782296 981.18896905 -60.01880461 979.12406093 -88.39746094 973.20898438 C-89.90199715 972.90443686 -91.40655508 972.59999663 -92.91113281 972.2956543 C-127.27588727 965.25980268 -160.84910748 954.82263135 -192.89746094 940.52148438 C-193.88069336 940.09013184 -194.86392578 939.6587793 -195.87695312 939.21435547 C-226.36287368 925.81991588 -254.97209277 909.10015404 -281.89746094 889.52148438 C-282.49091309 889.0899707 -283.08436523 888.65845703 -283.69580078 888.21386719 C-287.13478337 885.6986511 -290.52447054 883.1243009 -293.89746094 880.52148438 C-294.42968262 880.11397949 -294.9619043 879.70647461 -295.51025391 879.28662109 C-313.95358889 865.14478376 -330.99472018 849.4684283 -347.45996094 833.08398438 C-348.10247803 832.44614014 -348.74499512 831.8082959 -349.40698242 831.15112305 C-353.7719427 826.77134117 -357.86372622 822.20599107 -361.89746094 817.52148438 C-362.94314763 816.33033597 -363.9899906 815.14020146 -365.03808594 813.95117188 C-424.13316302 746.54936938 -463.92635154 663.00754322 -479.20996094 574.70898438 C-479.3272052 574.04150177 -479.44444946 573.37401917 -479.56524658 572.68630981 C-480.44036113 567.64422452 -481.18819761 562.5893181 -481.89746094 557.52148438 C-482.02949921 556.61457855 -482.16153748 555.70767273 -482.2975769 554.77328491 C-485.07179607 535.23141531 -485.39795492 515.87054917 -485.34350586 496.17260742 C-485.33434733 492.70914457 -485.3411921 489.24635812 -485.36401367 485.78295898 C-485.87192679 408.230604 -466.34336492 334.72480312 -431.89746094 265.52148438 C-431.48705566 264.69132812 -431.07665039 263.86117188 -430.65380859 263.00585938 C-420.26226988 242.1277242 -407.73360903 222.27889878 -393.89746094 203.52148438 C-393.14464844 202.48636719 -392.39183594 201.45125 -391.61621094 200.38476562 C-375.26856827 178.20290991 -356.94460526 157.53914744 -337.52246094 138.02148438 C-336.88083008 137.37518066 -336.23919922 136.72887695 -335.578125 136.06298828 C-331.74516368 132.24288925 -327.79256066 128.6165779 -323.69677734 125.08007812 C-321.51316564 123.18860226 -319.39454619 121.23151948 -317.27246094 119.27148438 C-311.62012256 114.1731271 -305.66289231 109.51305684 -299.63818359 104.86816406 C-298.02325883 103.61880572 -296.41887401 102.35585564 -294.81542969 101.09179688 C-267.32629439 79.56628656 -237.38730351 61.55548439 -205.89746094 46.52148438 C-204.7327124 45.96195068 -204.7327124 45.96195068 -203.54443359 45.39111328 C-139.93025571 15.04249573 -70.35034514 -0.38029107 0 0 Z " fill="#FEFEFE" transform="translate(484.8974609375,-0.521484375)"/>
<path d="M0 0 C16.51411084 12.6328734 29.33026257 30.70472109 32.82568359 51.609375 C35.15530088 76.37352588 29.79805166 97.68199538 14.11083984 117.328125 C1.03720715 131.89935648 -17.50607853 142.97483012 -37.27978516 144.5625 C-41.14793111 144.67831275 -45.01928087 144.640625 -48.88916016 144.640625 C-48.88916016 154.210625 -48.88916016 163.780625 -48.88916016 173.640625 C-45.82945953 173.63174255 -42.76975891 173.62286011 -39.61734009 173.6137085 C-11.53923614 173.53406022 16.53883685 173.47437135 44.61702504 173.43636368 C48.29937108 173.43136104 51.98171686 173.42618373 55.6640625 173.42089844 C56.39713063 173.4198492 57.13019876 173.41879995 57.88548107 173.41771892 C69.74484277 173.40032836 81.60412666 173.36879814 93.46344225 173.33201382 C105.63823929 173.29456677 117.81299566 173.2723812 129.98784792 173.26427102 C137.49637905 173.25879103 145.00469023 173.24150247 152.51315363 173.20895913 C158.27713872 173.18525403 164.04098384 173.18281465 169.80500793 173.18819427 C172.16483029 173.18709554 174.52466112 173.17916165 176.88443375 173.1638031 C180.11298659 173.14382412 183.34060775 173.14871529 186.56918335 173.15960693 C187.96125065 173.14212988 187.96125065 173.14212988 189.38144052 173.12429976 C197.44713876 173.19756036 205.36558713 175.38507016 211.48583984 180.890625 C212.09169922 181.41140625 212.69755859 181.9321875 213.32177734 182.46875 C219.36249954 189.80202847 219.6982016 196.37804658 219.66015625 205.56054688 C219.67548904 207.47957069 219.67548904 207.47957069 219.69113159 209.43736267 C219.71780037 212.93230804 219.71907887 216.42681918 219.71400499 219.92184639 C219.71185229 222.86016351 219.72166884 225.7983952 219.73121583 228.73669386 C219.75337995 235.69252976 219.75430384 242.6481498 219.7421875 249.60400391 C219.73018629 256.71583129 219.75453308 263.82685943 219.79732764 270.93855047 C219.83293813 277.08855551 219.84450167 283.23831092 219.83805215 289.38841486 C219.83447646 293.0412226 219.83917674 296.69346415 219.86748123 300.34617615 C220.1198802 335.99680872 212.0450474 364.58325494 187.11083984 390.640625 C186.17691406 391.66929687 186.17691406 391.66929687 185.22412109 392.71875 C172.32747422 406.45354373 153.94295649 415.29099001 136.11083984 420.640625 C134.53302734 421.12015625 134.53302734 421.12015625 132.92333984 421.609375 C124.15701321 423.80095666 115.48659629 423.94907912 106.48583984 424.015625 C105.27081787 424.02956299 104.0557959 424.04350098 102.80395508 424.05786133 C95.51657717 424.01988311 88.97783057 423.18434684 81.9375 421.28369141 C79.18587352 420.65769519 76.91827498 420.38353724 74.11083984 420.640625 C72.28651966 422.44685388 72.28651966 422.44685388 70.86083984 424.953125 C53.18523342 451.93965043 28.34682469 470.15966387 -1.88916016 480.640625 C-3.19309724 481.14832501 -4.49647075 481.65747449 -5.79931641 482.16796875 C-29.40511231 491.00947437 -59.85283634 490.4934052 -83.88916016 483.640625 C-84.99259766 483.34027344 -86.09603516 483.03992188 -87.23291016 482.73046875 C-95.46499483 480.22834828 -103.19974335 476.45725407 -110.88916016 472.640625 C-111.84822266 472.16753906 -112.80728516 471.69445312 -113.79541016 471.20703125 C-123.72634084 466.05170988 -133.80188347 459.54571121 -141.36181641 451.2109375 C-142.95721336 449.49879719 -142.95721336 449.49879719 -145.30712891 447.7578125 C-149.87131702 444.01531634 -153.25475834 439.26244204 -156.88916016 434.640625 C-157.62521484 433.73183594 -158.36126953 432.82304688 -159.11962891 431.88671875 C-176.29504021 410.02986791 -185.22763832 383.92965941 -187.43457031 356.32641602 C-187.52082672 355.25802994 -187.60708313 354.18964386 -187.69595337 353.08888245 C-187.75971161 352.28095749 -187.82346985 351.47303253 -187.88916016 350.640625 C-189.03206512 350.65172806 -190.17497009 350.66283112 -191.35250854 350.67427063 C-202.1509552 350.77586026 -212.94930422 350.85069282 -223.74812126 350.89968586 C-229.29924392 350.92572102 -234.84997917 350.96100808 -240.40087891 351.01782227 C-245.76311142 351.07235868 -251.12497252 351.10209123 -256.48746109 351.11501122 C-258.52791308 351.12421232 -260.56834594 351.14217979 -262.60863876 351.16927528 C-284.61984192 351.44982368 -284.61984192 351.44982368 -292.97384644 343.7089386 C-298.8463997 337.74454067 -302.3014999 330.433021 -302.43345797 322.03848428 C-302.42589932 321.25578614 -302.41834068 320.47308801 -302.41055298 319.66667175 C-302.41820407 318.80990272 -302.42585517 317.95313369 -302.43373811 317.07040197 C-302.45423481 314.22400623 -302.44644597 311.37842977 -302.43847656 308.53198242 C-302.44717872 306.48117838 -302.45754766 304.43038085 -302.4694519 302.3795929 C-302.49617128 296.82570458 -302.49739598 291.27208898 -302.49232531 285.71814895 C-302.49018151 281.07372782 -302.4999639 276.42936137 -302.50953615 271.78495198 C-302.53170605 260.82298279 -302.53261312 249.86115067 -302.52050781 238.89916992 C-302.50843162 227.60928632 -302.53304601 216.31990144 -302.57564795 205.03010291 C-302.61093406 195.3202279 -302.6228741 185.61051124 -302.61637247 175.90057451 C-302.61275465 170.1087257 -302.6179396 164.31723259 -302.64580154 158.52544212 C-302.67103736 153.07589279 -302.66699683 147.62711795 -302.64097977 142.17757988 C-302.63626597 140.18465152 -302.64165392 138.19166798 -302.65822601 136.19880295 C-302.74233482 125.29269896 -302.74774191 115.77775529 -295.88916016 106.640625 C-289.59607329 100.5387352 -284.01703613 97.38636028 -275.13774109 97.40011597 C-274.47193348 97.39840712 -273.80612588 97.39669827 -273.12014228 97.39493763 C-270.89679732 97.39165238 -268.67375645 97.40263028 -266.45043945 97.41357422 C-264.8536632 97.41413854 -263.25688643 97.41382136 -261.66011047 97.41268921 C-257.32992061 97.41211552 -252.9998416 97.42387248 -248.6696775 97.43783712 C-244.14264981 97.45034174 -239.61561956 97.45151477 -235.08857727 97.45388794 C-226.51805519 97.46010349 -217.94758416 97.47651535 -209.37708455 97.49658692 C-199.6189994 97.51894356 -189.8609118 97.52993876 -180.1028074 97.53997779 C-160.03156317 97.56088149 -139.96036488 97.59605896 -119.88916016 97.640625 C-120.1636348 96.82146103 -120.43810944 96.00229706 -120.72090149 95.15830994 C-121.2611219 93.54261864 -121.2611219 93.54261864 -121.81225586 91.89428711 C-122.1692305 90.82762314 -122.52620514 89.76095917 -122.89399719 88.66197205 C-128.94050928 70.30456517 -127.68111549 48.57493771 -119.07666016 31.265625 C-117.72679855 28.69672002 -116.32181197 26.16409529 -114.88916016 23.640625 C-114.42767578 22.79886719 -113.96619141 21.95710938 -113.49072266 21.08984375 C-106.29278826 9.15872219 -95.04934484 0.07179879 -82.88916016 -6.359375 C-82.13376953 -6.76542969 -81.37837891 -7.17148438 -80.60009766 -7.58984375 C-78.39513311 -8.66755114 -76.2014894 -9.5359064 -73.88916016 -10.359375 C-72.86177734 -10.730625 -71.83439453 -11.101875 -70.77587891 -11.484375 C-46.88261672 -19.0048772 -20.25758507 -14.57666499 0 0 Z " fill="#525BC1" transform="translate(510.88916015625,253.359375)"/>
<path d="M0 0 C30.02214708 -0.09131769 60.04428939 -0.16207341 90.06654476 -0.20426132 C93.61369934 -0.20926394 97.16085364 -0.21444125 100.70800781 -0.21972656 C101.41416041 -0.2207758 102.12031301 -0.22182505 102.84786417 -0.22290608 C114.27073692 -0.24029509 125.69352886 -0.27182444 137.11635374 -0.30861118 C148.84366567 -0.34606257 160.57093539 -0.36824471 172.29830468 -0.37635398 C178.88270561 -0.38156593 185.46692348 -0.3938049 192.05126572 -0.42292023 C198.25150555 -0.45011439 204.45148727 -0.45843675 210.65178108 -0.45243073 C212.92452587 -0.45352915 215.19727948 -0.4614589 217.46997261 -0.4768219 C220.580302 -0.49681195 223.68966514 -0.49190586 226.80001831 -0.48101807 C227.69304464 -0.49266943 228.58607097 -0.5043208 229.50615871 -0.51632524 C237.46767755 -0.44132945 245.34403176 1.82476219 251.375 7.25 C251.98085938 7.77078125 252.58671875 8.2915625 253.2109375 8.828125 C259.25165969 16.16140347 259.58736176 22.73742158 259.54931641 31.91992188 C259.55953827 33.19927109 259.56976013 34.4786203 259.58029175 35.79673767 C259.60696052 39.29168304 259.60823903 42.78619418 259.60316515 46.28122139 C259.60101245 49.21953851 259.610829 52.1577702 259.62037599 55.09606886 C259.64254011 62.05190476 259.643464 69.0075248 259.63134766 75.96337891 C259.61934644 83.07520629 259.64369324 90.18623443 259.68648779 97.29792547 C259.72209829 103.44793051 259.73366182 109.59768592 259.72721231 115.74778986 C259.72363661 119.4005976 259.7283369 123.05283915 259.75664139 126.70555115 C260.00904036 162.35618372 251.93420755 190.94262994 227 217 C226.37738281 217.68578125 225.75476563 218.3715625 225.11328125 219.078125 C212.21663438 232.81291873 193.83211665 241.65036501 176 247 C174.948125 247.3196875 173.89625 247.639375 172.8125 247.96875 C164.04617337 250.16033166 155.37575644 250.30845412 146.375 250.375 C145.15997803 250.38893799 143.94495605 250.40287598 142.69311523 250.41723633 C135.40573732 250.37925811 128.86699073 249.54372184 121.82666016 247.64306641 C119.07503368 247.01707019 116.80743513 246.74291224 114 247 C112.17567981 248.80622888 112.17567981 248.80622888 110.75 251.3125 C93.07439358 278.29902543 68.23598484 296.51903887 38 307 C36.69606292 307.50770001 35.39268941 308.01684949 34.08984375 308.52734375 C10.48404785 317.36884937 -19.96367618 316.8527802 -44 310 C-45.1034375 309.69964844 -46.206875 309.39929688 -47.34375 309.08984375 C-55.57583468 306.58772328 -63.3105832 302.81662907 -71 299 C-72.43859375 298.29037109 -72.43859375 298.29037109 -73.90625 297.56640625 C-83.83718068 292.41108488 -93.91272331 285.90508621 -101.47265625 277.5703125 C-103.0680532 275.85817219 -103.0680532 275.85817219 -105.41796875 274.1171875 C-109.98215687 270.37469134 -113.36559818 265.62181704 -117 261 C-117.73605469 260.09121094 -118.47210938 259.18242188 -119.23046875 258.24609375 C-135.08349723 238.07206281 -147 211.05106133 -147 185 C-146.03977149 184.99918285 -146.03977149 184.99918285 -145.06014442 184.99834919 C-129.45093521 184.9833521 -113.84207773 184.94078755 -98.23304176 184.86790943 C-90.68446274 184.83332333 -83.13606511 184.80791233 -75.58740234 184.80444336 C-69.0044645 184.80139453 -62.42185026 184.78078152 -55.8390373 184.73947543 C-52.35655587 184.71822623 -48.87453354 184.70550263 -45.39198685 184.71384621 C-41.49489886 184.72285269 -37.59862759 184.69262792 -33.70166016 184.65942383 C-32.55941986 184.66804947 -31.41717957 184.67667511 -30.24032593 184.68556213 C-21.89191298 184.56672184 -15.13297265 182.77246206 -8.85235023 177.03968525 C-0.39305472 168.28577832 -0.55457553 158.61776096 -0.56762695 147.12890625 C-0.55860088 145.5218277 -0.54827159 143.91475603 -0.53674316 142.30769348 C-0.50924625 137.96324607 -0.49989861 133.61892956 -0.49388909 129.27440643 C-0.48448635 124.72731881 -0.45828144 120.18032822 -0.43388367 115.63330078 C-0.39026719 107.03104806 -0.36169044 98.42881422 -0.33856028 89.82648468 C-0.31148258 80.02957345 -0.26757266 70.23276008 -0.22227156 60.43591881 C-0.12949479 40.29066523 -0.05778217 20.14538236 0 0 Z " fill="#7C84EB" transform="translate(471,427)"/>
<path d="M0 0 C16.77715027 -0.0936188 33.55421526 -0.16406484 50.33156395 -0.20724869 C58.12233612 -0.22783648 65.91294558 -0.25588421 73.70361328 -0.30175781 C80.49735364 -0.34174201 87.29097611 -0.36746029 94.08483088 -0.37635398 C97.67911229 -0.38154926 101.27305656 -0.39367985 104.86722946 -0.42292023 C108.88868645 -0.4553686 112.90956471 -0.45595204 116.93115234 -0.45410156 C118.70061722 -0.47567322 118.70061722 -0.47567322 120.50582886 -0.49768066 C129.33422917 -0.45385173 137.60956851 1.16406599 144.375 7.25 C145.28378906 8.03117187 145.28378906 8.03117187 146.2109375 8.828125 C152.25165969 16.16140347 152.58736176 22.73742158 152.54931641 31.91992188 C152.55953827 33.19927109 152.56976013 34.4786203 152.58029175 35.79673767 C152.60696052 39.29168304 152.60823903 42.78619418 152.60316515 46.28122139 C152.60101245 49.21953851 152.610829 52.1577702 152.62037599 55.09606886 C152.64254011 62.05190476 152.643464 69.0075248 152.63134766 75.96337891 C152.61934644 83.07520629 152.64369324 90.18623443 152.68648779 97.29792547 C152.72209829 103.44793051 152.73366182 109.59768592 152.72721231 115.74778986 C152.72363661 119.4005976 152.7283369 123.05283915 152.75664139 126.70555115 C153.00904036 162.35618372 144.93420755 190.94262994 120 217 C119.37738281 217.68578125 118.75476563 218.3715625 118.11328125 219.078125 C105.21663438 232.81291873 86.83211665 241.65036501 69 247 C67.948125 247.3196875 66.89625 247.639375 65.8125 247.96875 C57.04617337 250.16033166 48.37575644 250.30845412 39.375 250.375 C38.15997803 250.38893799 36.94495605 250.40287598 35.69311523 250.41723633 C26.26832435 250.36811897 16.41377508 249.63298102 8 245 C8.24645264 244.46745605 8.49290527 243.93491211 8.74682617 243.38623047 C22.41159142 213.74788083 26.64142912 188.22475718 26.60316515 155.84707069 C26.60100107 152.21362068 26.61085264 148.58023874 26.62037599 144.94680357 C26.64241666 136.37366174 26.64352124 127.80069536 26.63134766 119.22753906 C26.61923059 110.41799106 26.64401841 101.60907887 26.68648779 92.79963923 C26.72180101 85.19142708 26.73371127 77.58341679 26.72721231 69.97512579 C26.72360489 65.44989975 26.72867712 60.92512942 26.75664139 56.39997864 C26.7819294 52.15100522 26.77778966 47.90302369 26.75181961 43.65406418 C26.7471201 42.10457893 26.7524418 40.55502224 26.76906586 39.00561905 C26.87633193 28.22365915 25.35828632 19.23956533 18.11423683 10.80408478 C13.05963509 5.74265939 6.62465253 3.395916 0 1 C0 0.67 0 0.34 0 0 Z " fill="#4F58CA" transform="translate(578,427)"/>
<path d="M0 0 C16.51411084 12.6328734 29.33026257 30.70472109 32.82568359 51.609375 C35.15530088 76.37352588 29.79805166 97.68199538 14.11083984 117.328125 C2.58766601 130.17129089 -15.20929421 142.52306101 -32.91650391 143.87109375 C-35.25986346 143.88752685 -37.55447324 143.83035125 -39.88916016 143.640625 C-39.91494141 142.60164062 -39.94072266 141.56265625 -39.96728516 140.4921875 C-40.31052394 130.96044656 -40.80567626 122.35233718 -47.32666016 114.828125 C-48.17228516 114.10625 -49.01791016 113.384375 -49.88916016 112.640625 C-50.65228516 111.83625 -51.41541016 111.031875 -52.20166016 110.203125 C-60.03209173 102.73689954 -67.20631948 98.12846345 -78.26586914 98.33007812 C-79.10685465 98.3329332 -79.94784016 98.33578827 -80.81431007 98.33872986 C-83.6924028 98.35212925 -86.56984263 98.38731835 -89.44775391 98.421875 C-91.57505924 98.43602157 -93.70237474 98.44869865 -95.82969666 98.46008301 C-100.70921305 98.48881024 -105.58855212 98.52705688 -110.46795654 98.57080078 C-118.93972023 98.64580307 -127.41156865 98.69085318 -135.88354993 98.733181 C-151.32364037 98.81033146 -166.76364061 98.89822426 -182.20361328 98.99609375 C-183.13239579 99.00197887 -184.06117831 99.007864 -185.01810575 99.01392746 C-188.79603832 99.03789537 -192.57397059 99.06191096 -196.35190237 99.08600426 C-206.03352127 99.14770472 -215.71515118 99.2075926 -225.39678204 99.26738262 C-245.2275869 99.38988792 -265.05837798 99.51450378 -284.88916016 99.640625 C-281.27964294 97.23428019 -279.67089117 97.39347615 -275.37825012 97.40011597 C-274.71415137 97.39840712 -274.05005261 97.39669827 -273.36582965 97.39493763 C-271.13627407 97.39163832 -268.90701817 97.40265347 -266.67749023 97.41357422 C-265.08100898 97.41413824 -263.48452721 97.41382195 -261.88804626 97.41268921 C-257.54947405 97.41211433 -253.21101195 97.42389043 -248.87246537 97.43783712 C-244.34008734 97.45032204 -239.80770691 97.45151321 -235.27531433 97.45388794 C-226.69055936 97.4601093 -218.10585521 97.47652899 -209.52112263 97.49658692 C-199.74857382 97.51892552 -189.9760226 97.52993421 -180.20345461 97.53997779 C-160.09866141 97.56089465 -139.99391398 97.59608337 -119.88916016 97.640625 C-120.1636348 96.82146103 -120.43810944 96.00229706 -120.72090149 95.15830994 C-121.2611219 93.54261864 -121.2611219 93.54261864 -121.81225586 91.89428711 C-122.1692305 90.82762314 -122.52620514 89.76095917 -122.89399719 88.66197205 C-128.94050928 70.30456517 -127.68111549 48.57493771 -119.07666016 31.265625 C-117.72679855 28.69672002 -116.32181197 26.16409529 -114.88916016 23.640625 C-114.42767578 22.79886719 -113.96619141 21.95710938 -113.49072266 21.08984375 C-106.29278826 9.15872219 -95.04934484 0.07179879 -82.88916016 -6.359375 C-82.13376953 -6.76542969 -81.37837891 -7.17148438 -80.60009766 -7.58984375 C-78.39513311 -8.66755114 -76.2014894 -9.5359064 -73.88916016 -10.359375 C-72.86177734 -10.730625 -71.83439453 -11.101875 -70.77587891 -11.484375 C-46.88261672 -19.0048772 -20.25758507 -14.57666499 0 0 Z " fill="#7C84EB" transform="translate(510.88916015625,253.359375)"/>
<path d="M0 0 C1.05396973 0.01466309 2.10793945 0.02932617 3.19384766 0.04443359 C15.13157509 0.33460594 24.25334107 2.46380107 34.0625 9.4375 C35.42375 10.39462891 35.42375 10.39462891 36.8125 11.37109375 C48.64306523 20.32617437 56.72792091 32.80978993 59.66796875 47.453125 C62.11737057 65.98127342 57.25885799 80.98800858 46.33984375 95.76953125 C39.12981454 104.68405909 29.6667154 109.57241214 19.0625 113.4375 C18.25167969 113.75847656 17.44085937 114.07945312 16.60546875 114.41015625 C3.43303321 119.10679579 -10.85193536 116.80169345 -23.30004883 111.13012695 C-37.51301921 104.27557736 -48.34806785 92.29932346 -53.9375 77.4375 C-58.12015923 63.19375065 -58.20956491 46.11616166 -51.76953125 32.6328125 C-40.64036217 13.22202293 -23.03521519 -0.513371 0 0 Z " fill="#5059CA" transform="translate(651.9375,285.5625)"/>
<path d="M0 0 C32.01 0 64.02 0 97 0 C97 7.59 97 15.18 97 23 C85.12 23 73.24 23 61 23 C61 57.98 61 92.96 61 129 C52.75 129 44.5 129 36 129 C36 94.02 36 59.04 36 23 C24.12 23 12.24 23 0 23 C0 15.41 0 7.82 0 0 Z " fill="#FBFBFD" transform="translate(287,413)"/>
<path d="M0 0 C2.64 0 5.28 0 8 0 C8.09349293 21.37511966 8.16400355 42.75020554 8.20724869 64.12548828 C8.22786298 74.05068807 8.25596196 83.97576072 8.30175781 93.90087891 C8.34166022 102.55287163 8.36744105 111.20477226 8.37635398 119.85685444 C8.38156296 124.43696304 8.39378236 129.01680821 8.42292023 133.59683228 C8.45014313 137.91095275 8.45843115 142.22470217 8.45243073 146.53890038 C8.4535279 148.11909186 8.4614409 149.69929622 8.4768219 151.27941322 C8.56509388 160.81855803 8.46427682 168.04842536 1.78125 175.4609375 C1.0284375 176.09257813 0.275625 176.72421875 -0.5 177.375 C-1.2528125 178.02210938 -2.005625 178.66921875 -2.78125 179.3359375 C-6.70364532 182.27773399 -9.41028811 183.25017591 -14.34039307 183.24050903 C-15.42290344 183.24325836 -16.50541382 183.24600769 -17.62072754 183.24884033 C-18.80324097 183.24164978 -19.98575439 183.23445923 -21.20410156 183.22705078 C-23.07766327 183.22748886 -23.07766327 183.22748886 -24.98907471 183.22793579 C-28.41031111 183.22678146 -31.83130594 183.21675323 -35.25249958 183.20278788 C-38.82927552 183.19028265 -42.4060547 183.18911018 -45.98284912 183.18673706 C-52.75427987 183.18052168 -59.52564602 183.16411008 -66.29704833 183.14403808 C-74.00677974 183.12168089 -81.71651425 183.1106861 -89.42627001 183.10064721 C-105.28421742 183.0797439 -121.14210038 183.0445668 -137 183 C-137.33 180.69 -137.66 178.38 -138 176 C-137.12342538 175.99641747 -137.12342538 175.99641747 -136.22914219 175.99276257 C-121.98061074 175.93351202 -107.73224369 175.85789804 -93.4838953 175.76428509 C-86.59336443 175.71940434 -79.70288434 175.67997214 -72.81225586 175.65356445 C-66.15966496 175.62805348 -59.50728338 175.58709696 -52.85482597 175.53681374 C-50.31961327 175.52015755 -47.78436135 175.50863553 -45.24910164 175.50238609 C-41.69195024 175.49273182 -38.1353774 175.46465497 -34.57836914 175.43237305 C-33.53539169 175.43380814 -32.49241425 175.43524323 -31.41783142 175.4367218 C-22.45752035 175.3220833 -13.53428429 173.61555648 -7 167 C-2.60613991 160.63687101 -0.88569395 155.37602383 -0.84178162 147.67254639 C-0.8319928 146.37126801 -0.82220398 145.06998962 -0.81211853 143.72927856 C-0.80621469 142.28924597 -0.80040422 140.849213 -0.79467773 139.40917969 C-0.78509657 137.8913649 -0.77508635 136.37355276 -0.76467896 134.85574341 C-0.73764966 130.73629394 -0.7166294 126.61683303 -0.69667697 122.49734402 C-0.67480524 118.19183203 -0.64742235 113.8863552 -0.62062073 109.58087158 C-0.57070991 101.42826836 -0.52576509 93.27564561 -0.48259836 85.1230042 C-0.43321224 75.8413236 -0.3782992 66.55967829 -0.32291877 57.27803183 C-0.20912344 38.18538731 -0.10227906 19.0927095 0 0 Z " fill="#4C5298" transform="translate(462,428)"/>
<path d="M0 0 C4.2215914 1.32104221 5.93842126 2.7528092 8.25 6.5 C9.00023437 7.69109375 9.00023437 7.69109375 9.765625 8.90625 C11.65392691 12.10919247 12.12113671 13.86039929 12.09765625 17.5703125 C12.09443359 18.46621094 12.09121094 19.36210937 12.08789062 20.28515625 C12.07951172 21.22230469 12.07113281 22.15945313 12.0625 23.125 C12.05798828 24.06988281 12.05347656 25.01476562 12.04882812 25.98828125 C12.03702357 28.32558387 12.02055759 30.66276061 12 33 C9.36 33 6.72 33 4 33 C3.98541748 32.28457031 3.97083496 31.56914062 3.95581055 30.83203125 C3.88080787 27.55417564 3.78432045 24.27728083 3.6875 21 C3.66494141 19.87464844 3.64238281 18.74929688 3.61914062 17.58984375 C3.4092715 11.06482174 2.72100893 5.95266296 0 0 Z " fill="#4D539A" transform="translate(458,364)"/>
<path d="M0 0 C0.66 0.33 1.32 0.66 2 1 C-0.97 3.97 -3.94 6.94 -7 10 C-7 6.04435836 -5.59478606 4.89133304 -3 2 C-2.01 1.34 -1.02 0.68 0 0 Z " fill="#6C74CA" transform="translate(221,355)"/>
</svg>
